<?xml version="1.0" standalone="no"?>
<!DOCTYPE svg PUBLIC "-//W3C//DTD SVG 20010904//EN"
 "http://www.w3.org/TR/2001/REC-SVG-20010904/DTD/svg10.dtd">
<svg version="1.0" xmlns="http://www.w3.org/2000/svg"
 width="800.000000pt" height="450.000000pt" viewBox="0 0 800.000000 450.000000"
 preserveAspectRatio="xMidYMid meet">

<g transform="translate(0.000000,450.000000) scale(0.100000,-0.100000)"
fill="#000000" stroke="none">
<path d="M464 3065 c-99 -78 -110 -90 -121 -131 -18 -68 -88 -463 -123 -688
-29 -186 -90 -669 -90 -709 0 -9 37 -56 81 -102 l82 -85 409 0 410 0 115 113
116 114 28 219 c15 120 34 259 42 307 12 80 12 89 -2 95 -9 4 -125 7 -259 7
-193 0 -244 -3 -251 -13 -13 -21 -23 -164 -30 -412 l-6 -225 -39 75 c-76 146
-116 306 -116 460 l0 88 -31 6 c-17 3 -47 6 -66 6 -24 0 -34 4 -31 13 3 6 17
49 32 95 29 87 32 89 106 84 11 -1 24 24 42 83 31 96 99 238 162 334 50 76
157 213 163 207 2 -2 -14 -64 -37 -137 -48 -155 -107 -387 -116 -453 -6 -43
-5 -45 21 -52 28 -7 344 2 447 13 l56 5 7 47 c3 25 27 148 51 274 l45 227 -71
90 c-65 82 -74 89 -113 94 -45 6 -693 36 -763 36 -37 0 -54 -10 -150 -85z"/>
<path d="M2002 2218 c-134 -15 -249 -96 -305 -216 -29 -61 -32 -76 -32 -167 0
-93 2 -105 33 -167 102 -209 391 -274 577 -132 69 52 72 101 4 59 -168 -107
-391 -43 -472 134 -31 68 -31 216 1 286 44 96 122 153 221 162 106 10 180 -27
205 -102 9 -25 21 -41 33 -43 16 -2 21 8 31 68 18 104 22 97 -70 109 -121 15
-156 17 -226 9z"/>
<path d="M5450 2219 c-324 -33 -464 -438 -228 -661 114 -109 328 -128 473 -43
141 82 225 264 195 418 -40 202 -204 309 -440 286z m123 -55 c60 -20 122 -82
155 -152 34 -74 42 -211 19 -293 -37 -125 -115 -200 -217 -207 -76 -6 -124 11
-181 65 -114 106 -146 314 -71 462 58 116 176 166 295 125z"/>
<path d="M2468 2213 c-87 -3 -108 -7 -108 -18 0 -8 8 -15 18 -15 10 0 28 -7
40 -16 22 -15 22 -17 22 -313 0 -296 0 -298 -22 -318 -13 -11 -31 -23 -40 -26
-10 -4 -18 -13 -18 -22 0 -12 15 -15 84 -15 125 0 206 10 206 26 0 9 -13 14
-37 14 -21 0 -42 4 -48 8 -6 4 -9 64 -7 155 l3 147 200 0 199 0 0 -133 c0
-127 -1 -135 -23 -155 -13 -12 -31 -22 -40 -22 -10 0 -17 -8 -17 -20 0 -19 7
-20 240 -20 233 0 240 1 240 20 0 15 -7 20 -29 20 -60 0 -61 4 -25 97 19 47
39 92 45 100 9 11 39 13 137 11 l125 -3 33 -89 c26 -68 32 -92 23 -102 -6 -8
-18 -14 -25 -14 -8 0 -14 -9 -14 -20 0 -19 7 -20 183 -20 236 0 347 9 347 26
0 9 -12 14 -34 14 -66 0 -66 -1 -66 139 0 138 5 151 52 151 25 0 38 -15 116
-132 48 -73 94 -148 101 -165 l13 -33 94 0 c87 0 94 1 94 20 0 11 -6 20 -14
20 -28 0 -70 47 -157 176 -49 73 -89 137 -89 142 0 5 18 22 39 36 80 56 120
155 91 226 -18 44 -72 87 -132 105 -74 22 -408 22 -408 0 0 -8 9 -15 19 -15
10 0 29 -8 42 -19 l23 -18 -1 -296 c0 -316 0 -319 -50 -338 -32 -12 -69 5 -87
39 -8 15 -69 170 -136 343 -68 173 -126 318 -130 322 -4 4 -18 4 -31 -1 -21
-8 -44 -59 -153 -333 -71 -178 -138 -334 -149 -346 -16 -18 -31 -23 -66 -23
-25 0 -50 4 -56 8 -15 11 -4 641 13 669 6 12 12 23 12 25 0 2 -52 2 -115 0
-89 -3 -115 -6 -115 -17 0 -7 14 -16 30 -20 17 -4 35 -15 40 -25 6 -10 10 -75
10 -143 0 -105 -3 -126 -16 -131 -9 -3 -99 -6 -200 -6 l-184 0 0 135 c0 98 4
146 15 172 17 41 18 44 8 41 -5 -1 -56 -4 -115 -5z m1743 -76 c89 -59 92 -208
6 -271 -21 -16 -43 -21 -90 -21 l-62 0 -3 145 c-1 79 0 150 2 157 9 23 108 16
147 -10z m-672 -220 c28 -77 51 -141 51 -143 0 -2 -49 -4 -110 -4 -60 0 -110
2 -110 4 0 3 21 59 101 265 5 13 11 22 13 20 2 -2 27 -66 55 -142z"/>
<path d="M4658 2213 c-84 -3 -108 -7 -108 -18 0 -7 14 -16 30 -20 17 -4 35
-15 40 -25 13 -25 13 -585 0 -610 -5 -10 -23 -23 -40 -28 -16 -6 -30 -18 -30
-27 0 -14 29 -15 252 -13 l253 3 22 95 c27 116 27 110 5 110 -12 0 -26 -17
-42 -50 -13 -27 -36 -62 -52 -77 -28 -27 -35 -28 -136 -31 l-107 -4 3 313 c2
244 6 320 18 347 16 40 17 43 7 40 -5 -1 -56 -4 -115 -5z"/>
<path d="M5931 2170 c-5 -25 -12 -66 -16 -92 -7 -43 -5 -48 12 -48 13 0 23 12
32 35 6 19 26 48 42 65 29 28 36 30 105 30 l74 0 0 -289 c0 -171 -4 -301 -10
-316 -6 -15 -23 -32 -40 -38 -18 -7 -30 -19 -30 -29 0 -16 10 -18 83 -18 130
0 217 11 217 26 0 10 -13 14 -42 14 -24 0 -49 4 -56 8 -9 7 -12 78 -10 323 l3
314 78 3 c71 3 79 1 102 -22 19 -19 25 -36 25 -66 0 -37 2 -41 22 -38 19 2 24
13 34 68 7 36 13 76 13 90 l1 25 -315 0 -314 0 -10 -45z"/>
<path d="M6624 2205 c-2 -5 -8 -39 -14 -75 -6 -36 -13 -73 -16 -82 -4 -13 0
-18 14 -18 14 0 27 14 42 45 33 69 60 85 141 85 l69 0 0 -305 c0 -292 -1 -306
-20 -325 -11 -11 -27 -20 -35 -20 -8 0 -15 -9 -15 -20 0 -18 7 -20 84 -20 125
0 206 10 206 26 0 9 -12 14 -32 14 -79 0 -73 -28 -70 331 l3 319 77 0 c47 -1
84 -6 94 -14 20 -15 38 -58 38 -92 0 -17 6 -24 19 -24 15 0 21 14 35 89 9 49
16 90 16 92 0 10 -633 3 -636 -6z"/>
<path d="M7568 2213 c-218 -3 -268 -6 -268 -17 0 -7 13 -16 29 -19 62 -13 61
-10 61 -331 l0 -293 -23 -21 c-13 -12 -31 -22 -40 -22 -10 0 -17 -8 -17 -20 0
-19 7 -20 260 -20 l260 0 5 23 c28 120 35 160 31 164 -12 13 -36 -9 -62 -57
-38 -71 -61 -80 -192 -80 l-108 0 3 143 c3 78 6 148 8 155 3 8 31 12 95 12
l90 0 0 -45 c0 -43 1 -45 30 -45 l30 0 0 101 c0 98 0 100 -22 97 -17 -2 -24
-12 -28 -33 l-5 -30 -98 -3 -97 -3 0 146 0 145 108 0 c72 -1 113 -5 124 -14
20 -15 38 -58 38 -92 0 -17 6 -24 19 -24 15 0 20 13 30 78 7 42 15 85 17 95 3
9 2 16 -3 15 -4 -2 -128 -4 -275 -5z"/>
</g>
</svg>
